<?xml version="1.0"?>
<svg xmlns="http://www.w3.org/2000/svg" xmlns:xlink="http://www.w3.org/1999/xlink" xmlns:svgjs="http://svgjs.com/svgjs" version="1.1" width="512" height="512" x="0" y="0" viewBox="0 0 512 512" style="enable-background:new 0 0 512 512" xml:space="preserve" class=""><g><path xmlns="http://www.w3.org/2000/svg" d="m360.544 179.283h-42.823v-30.355a7 7 0 0 0 -7-7h-12.546v-17.276h4.945a7 7 0 0 0 6.781-5.262l14.647-57.168a33.061 33.061 0 0 0 -31.462-43.222h-74.172a33.061 33.061 0 0 0 -31.462 43.222l14.648 57.168a7 7 0 0 0 6.781 5.262h4.945v17.276h-12.547a7 7 0 0 0 -7 7v30.355h-42.823a59.125 59.125 0 0 0 -57.211 74.049l50.992 195.468a59.142 59.142 0 0 0 57.21 44.2h107.106a59.142 59.142 0 0 0 57.21-44.2l50.992-195.468a59.125 59.125 0 0 0 -57.211-74.049zm-159.587-120.758c-.04-.156-.086-.311-.137-.464a19.062 19.062 0 0 1 18.094-25.061h74.172a19.062 19.062 0 0 1 18.094 25.061c-.051.153-.1.308-.137.464l-13.355 52.127h-83.376zm83.218 66.127v17.276h-56.35v-17.276zm-75.9 31.276h95.442v23.355h-95.438zm195.933 93.872-50.992 195.467a45.138 45.138 0 0 1 -43.663 33.733h-107.106a45.138 45.138 0 0 1 -43.663-33.733l-50.992-195.467a45.125 45.125 0 0 1 43.664-56.516h209.088a45.125 45.125 0 0 1 43.664 56.516z" fill="#045f73" data-original="#000000" style="" class=""/><path xmlns="http://www.w3.org/2000/svg" d="m325.664 229.283h-139.328a41.733 41.733 0 0 0 -40.381 52.268l33.978 130.249a41.747 41.747 0 0 0 40.382 31.2h71.37a41.747 41.747 0 0 0 40.382-31.2l33.978-130.25a41.733 41.733 0 0 0 -40.381-52.268zm26.836 48.735-33.979 130.249a27.742 27.742 0 0 1 -26.836 20.733h-71.37a27.742 27.742 0 0 1 -26.836-20.732l-33.979-130.25a27.735 27.735 0 0 1 26.835-34.735h139.329a27.735 27.735 0 0 1 26.836 34.735z" fill="#045f73" data-original="#000000" style="" class=""/></g></svg>
